<svg width="29" height="29" viewBox="0 0 29 29" fill="none" xmlns="http://www.w3.org/2000/svg">
<path d="M24.9118 0H3.55882C1.59613 0 0 1.59613 0 3.55882V24.9118C0 26.8745 1.59613 28.4706 3.55882 28.4706H24.9118C26.8745 28.4706 28.4706 26.8745 28.4706 24.9118V3.55882C28.4706 1.59613 26.8745 0 24.9118 0Z" fill="#279BDD"/>
<path fill-rule="evenodd" clip-rule="evenodd" d="M18 12.6154H15.6667V10.7692C15.6667 10.2597 16.0848 10.3077 16.6 10.3077H17.5333V8H15.6667C14.9241 8 14.2119 8.29176 13.6868 8.81109C13.1617 9.33042 12.8667 10.0348 12.8667 10.7692V12.6154H11V14.9231H12.8667V20H15.6667V14.9231H17.0667L18 12.6154Z" fill="white"/>
</svg>
