<svg width="48" height="48" viewBox="0 0 48 48" fill="none" xmlns="http://www.w3.org/2000/svg">
<path d="M47.2481 22.5809C47.1997 22.5485 47.1498 22.5186 47.0983 22.4912L43.692 20.657L24.8023 30.6581C24.3005 30.9239 23.6996 30.9239 23.1978 30.6581L4.30812 20.657L0.901786 22.4912C0.0739074 22.9307 -0.241092 23.958 0.19836 24.7859C0.225682 24.8374 0.255615 24.8874 0.288059 24.9358L24 37.4895L47.712 24.9358C48.2342 24.1574 48.0266 23.1031 47.2481 22.5809Z" fill="#6B6B6B"/>
<path d="M47.7926 33.4709C47.6338 33.1767 47.3924 32.9353 47.0983 32.7766L43.6921 30.9424L24.8024 40.9435C24.3005 41.2093 23.6997 41.2093 23.1978 40.9435L4.30809 30.9424L0.90175 32.7766C0.0685478 33.2263 -0.242233 34.2663 0.207465 35.0995C0.366271 35.3937 0.607643 35.635 0.90175 35.7937L23.1875 47.7938C23.6947 48.0669 24.3053 48.0669 24.8126 47.7938L47.0983 35.7937C47.9314 35.344 48.2423 34.3041 47.7926 33.4709Z" fill="#6B6B6B"/>
<path d="M47.2481 12.2965C47.1997 12.2641 47.1498 12.2341 47.0983 12.2068L24.8126 0.206788C24.3054 -0.0663253 23.6948 -0.0663253 23.1875 0.206788L0.901786 12.2068C0.0739074 12.6463 -0.241092 13.6736 0.19836 14.5015C0.225682 14.5529 0.255615 14.603 0.288059 14.6514L24 27.2051L47.712 14.6514C48.2342 13.873 48.0266 12.8187 47.2481 12.2965Z" fill="#6B6B6B"/>
</svg>
