<svg width="48" height="48" viewBox="0 0 48 48" fill="none" xmlns="http://www.w3.org/2000/svg">
<path d="M46.1617 29.26L41.828 25.81C41.883 25.278 41.9301 24.6561 41.9301 23.998C41.9301 23.34 41.8849 22.7181 41.828 22.186L46.1657 18.7341C46.9712 18.0861 47.1912 16.936 46.6784 15.9781L42.1717 8.04C41.6904 7.14403 40.6354 6.684 39.5648 7.086L34.4511 9.17597C33.4708 8.45597 32.4433 7.848 31.3805 7.362L30.6026 1.84003C30.4749 0.792 29.579 0 28.5202 0H19.4834C18.4245 0 17.5307 0.792 17.4049 1.824L16.625 7.36603C15.5955 7.83806 14.5838 8.43806 13.5603 9.18L8.43285 7.08403C7.4721 6.70603 6.32284 7.12997 5.84546 8.022L1.33298 15.97C0.800621 16.8861 1.02062 18.076 1.84379 18.7401L6.17753 22.1901C6.10874 22.864 6.0754 23.4501 6.0754 24.0001C6.0754 24.5501 6.10883 25.1361 6.17753 25.8121L1.83983 29.2641C1.03434 29.914 0.816276 31.0641 1.32902 32.02L5.8357 39.958C6.31704 40.852 7.36214 41.316 8.44261 40.912L13.5563 38.8221C14.5347 39.5401 15.5621 40.1481 16.625 40.636L17.4029 46.156C17.5306 47.208 18.4245 48 19.4853 48H28.5221C29.5811 48 30.4769 47.208 30.6026 46.176L31.3825 40.636C32.4119 40.162 33.4217 39.564 34.4472 38.82L39.5746 40.916C39.8221 41.0139 40.0795 41.064 40.3447 41.064C41.1069 41.064 41.8083 40.64 42.1619 39.98L46.6882 32C47.1912 31.064 46.9711 29.914 46.1617 29.26ZM24.0017 32C19.668 32 16.1436 28.412 16.1436 24C16.1436 19.588 19.668 16 24.0017 16C28.3355 16 31.8599 19.588 31.8599 24C31.8599 28.412 28.3355 32 24.0017 32Z" fill="#6B6B6B"/>
</svg>
