<svg width="30" height="29" viewBox="0 0 30 29" fill="none" xmlns="http://www.w3.org/2000/svg">
<path d="M22.6115 0H6.9216C3.39231 0 0.53125 2.86106 0.53125 6.39035V22.0802C0.53125 25.6095 3.39231 28.4706 6.9216 28.4706H22.6115C26.1408 28.4706 29.0018 25.6095 29.0018 22.0802V6.39035C29.0018 2.86106 26.1408 0 22.6115 0Z" fill="#279BDD"/>
<path d="M11.4415 12.3151H9.1634V18.9866H11.4415V12.3151Z" fill="white"/>
<path d="M11.0585 9.20164C10.8414 9.07017 10.5862 9 10.3252 9C10.1511 9 9.97864 9.03124 9.81784 9.09194C9.65703 9.15264 9.51103 9.24159 9.38824 9.35367C9.26544 9.46576 9.16827 9.59878 9.10232 9.74507C9.03637 9.89136 9.00293 10.048 9.00393 10.2061C9.00543 10.443 9.0842 10.6742 9.23029 10.8705C9.37639 11.0668 9.58327 11.2194 9.82484 11.3091C10.0664 11.3988 10.3318 11.4216 10.5876 11.3745C10.8434 11.3275 11.0782 11.2127 11.2622 11.0448C11.4462 10.8768 11.5713 10.6631 11.6217 10.4306C11.6721 10.1982 11.6455 9.95744 11.5452 9.73872C11.445 9.51999 11.2756 9.3331 11.0585 9.20164Z" fill="white"/>
<path d="M15.0983 12.3147H12.9038L12.8962 19H15.1743V15.6987C15.1743 14.8303 15.3565 13.9895 16.5412 13.9895C17.7258 13.9895 17.7258 14.9888 17.7258 15.7607V18.9862H20.0039V15.3265C20.0039 13.5277 19.5407 12.1493 17.2626 12.1493C16.8284 12.1339 16.3977 12.2258 16.0165 12.4151C15.6354 12.6045 15.318 12.8842 15.0983 13.2245V12.3147Z" fill="white"/>
</svg>
