<svg width="90" height="90" viewBox="0 0 90 90" fill="none" xmlns="http://www.w3.org/2000/svg">
<g filter="url(#filter0_d_2_128)">
<circle cx="43" cy="41" r="25" fill="#EE2A52"/>
</g>
<g clip-path="url(#clip0_2_128)">
<path d="M39.4363 35.0096H37.6541C39.1393 33.7225 40.9214 33.0294 42.9016 33.0294C43.1987 33.0294 43.4957 33.0294 43.7927 33.1284C44.2878 33.2274 44.7828 32.8314 44.8818 32.2373C44.9809 31.7423 44.5848 31.2472 43.9908 31.1482C43.5947 31.0492 43.2977 31.0492 42.9016 31.0492C40.5254 31.0492 38.2482 31.9403 36.466 33.4254V32.0393C36.466 31.4452 36.07 31.0492 35.4759 31.0492C34.8818 31.0492 34.4858 31.4452 34.4858 32.0393V35.9997C34.4858 36.5937 34.8818 36.9898 35.4759 36.9898H39.4363C40.0304 36.9898 40.4264 36.5937 40.4264 35.9997C40.4264 35.4056 40.0304 35.0096 39.4363 35.0096ZM37.9512 43.4254C37.3571 43.4254 36.9611 43.8215 36.9611 44.4155V46.1977C35.6739 44.7126 34.9809 42.9304 34.9809 40.9502C34.9809 40.6532 34.9809 40.3561 35.0799 40.0591C35.1789 39.564 34.7828 39.069 34.1888 38.97C33.6937 38.871 33.1987 39.267 33.0997 39.8611C33.0007 40.2571 33.0007 40.5541 33.0007 40.9502C33.0007 43.3264 33.8917 45.6037 35.3769 47.3858H33.9908C33.3967 47.3858 33.0007 47.7819 33.0007 48.3759C33.0007 48.97 33.3967 49.366 33.9908 49.366H37.9512C38.2482 49.366 38.5452 49.168 38.7432 48.97C38.7432 48.871 38.8422 48.772 38.8422 48.673C38.8422 48.5739 38.8422 48.5739 38.8422 48.4749V48.3759V44.4155C38.9412 43.8215 38.5452 43.4254 37.9512 43.4254ZM51.8125 34.5145C52.4066 34.5145 52.8026 34.1185 52.8026 33.5244C52.8026 32.9304 52.4066 32.5343 51.8125 32.5343H47.8521C47.7531 32.5343 47.7531 32.5343 47.6541 32.5343C47.5551 32.5343 47.4561 32.6334 47.3571 32.6334C47.2581 32.7324 47.1591 32.7324 47.1591 32.8314C47.1591 32.9304 47.0601 33.0294 47.0601 33.0294C47.0601 33.1284 47.0601 33.1284 47.0601 33.2274V33.3264V37.2868C47.0601 37.8809 47.4561 38.2769 48.0502 38.2769C48.6442 38.2769 49.0403 37.8809 49.0403 37.2868V35.7027C50.3274 37.0888 51.0205 38.97 51.0205 40.9502C51.0205 41.2472 51.0205 41.5442 50.9214 41.8413C50.8224 42.3363 51.2185 42.8314 51.8125 42.9304H51.9115C52.4066 42.9304 52.8026 42.5343 52.9016 42.0393C52.9016 41.6433 53.0007 41.3462 53.0007 40.9502C53.0007 38.5739 52.1096 36.2967 50.6244 34.5145H51.8125ZM51.1195 45.4056C51.0205 45.3066 50.9214 45.2076 50.8224 45.1086C50.7234 45.0096 50.6244 45.0096 50.5254 45.0096H50.4264H50.3274H46.367C45.7729 45.0096 45.3769 45.4056 45.3769 45.9997C45.3769 46.5938 45.7729 46.9898 46.367 46.9898H48.1492C46.763 48.2769 44.8818 48.97 42.9016 48.97C42.6046 48.97 42.3076 48.97 42.0106 48.871C41.5155 48.772 41.0205 49.168 40.9214 49.7621C40.8224 50.3561 41.2185 50.7522 41.8125 50.8512C42.2086 50.8512 42.5056 50.9502 42.9016 50.9502C45.2779 50.9502 47.5551 50.0591 49.3373 48.5739V49.8611C49.3373 50.4551 49.7333 50.8512 50.3274 50.8512C50.9214 50.8512 51.3175 50.4551 51.3175 49.8611V45.9007C51.3175 45.7027 51.2185 45.5046 51.1195 45.4056Z" fill="white"/>
</g>
<defs>
<filter id="filter0_d_2_128" x="0" y="0" width="90" height="90" filterUnits="userSpaceOnUse" color-interpolation-filters="sRGB">
<feFlood flood-opacity="0" result="BackgroundImageFix"/>
<feColorMatrix in="SourceAlpha" type="matrix" values="0 0 0 0 0 0 0 0 0 0 0 0 0 0 0 0 0 0 127 0" result="hardAlpha"/>
<feOffset dx="2" dy="4"/>
<feGaussianBlur stdDeviation="10"/>
<feColorMatrix type="matrix" values="0 0 0 0 1 0 0 0 0 0.313726 0 0 0 0 0.298039 0 0 0 0.2 0"/>
<feBlend mode="normal" in2="BackgroundImageFix" result="effect1_dropShadow_2_128"/>
<feBlend mode="normal" in="SourceGraphic" in2="effect1_dropShadow_2_128" result="shape"/>
</filter>
<clipPath id="clip0_2_128">
<rect width="20" height="20" fill="white" transform="translate(33 31)"/>
</clipPath>
</defs>
</svg>
